<svg xmlns="http://www.w3.org/2000/svg" width="64" height="64" viewBox="0 0 64 64" fill="none">
                  <g clip-path="url(#clip0_907_21225)">
                  <path fill-rule="evenodd" clip-rule="evenodd" d="M33.6647 5.12983C33.8872 4.74036 34.3014 4.5 34.75 4.5C37.167 4.5 39.3503 5.69398 40.9024 7.31312C42.4475 8.92494 43.5 11.0959 43.5 13.25V19.4876L54.875 19.3749C55.1947 19.375 55.5264 19.4064 55.7744 19.4312C55.7913 19.4329 55.8083 19.4349 55.8251 19.4373C59.0113 19.8882 61.4774 22.5662 60.9319 25.7369L57.6076 44.8579C57.6074 44.8589 57.6072 44.86 57.6071 44.861C57.1341 47.6546 54.4297 49.5271 51.5437 49.5H24.75C24.6776 49.5 24.6066 49.4938 24.5375 49.482C24.4684 49.4938 24.3974 49.5 24.325 49.5H17.25C13.6932 49.5 11 46.3429 11 42.7V28.8C11 25.1571 13.6932 22 17.25 22H24.0246L33.6647 5.12983ZM26 23.582L35.4466 7.05046C36.786 7.24339 38.076 7.97738 39.0976 9.04313C40.3025 10.3001 41 11.8791 41 13.25V20.75C41 21.0837 41.1334 21.4035 41.3705 21.6382C41.6076 21.873 41.9287 22.0032 42.2624 21.9999L54.875 21.875C54.8769 21.875 54.8787 21.875 54.8806 21.875C55.0535 21.8754 55.2608 21.8926 55.499 21.9161C57.5963 22.224 58.7205 23.8379 58.4685 25.3109M58.4685 25.3109L55.1435 44.4359L55.1424 44.4421C54.9143 45.7947 53.4735 47.02 51.563 47.0001L26 47V23.582M23.5 47V24.5H17.25C15.3068 24.5 13.5 26.2929 13.5 28.8V42.7C13.5 45.2071 15.3068 47 17.25 47H23.5Z" fill="#E2DFD5"></path>
                  </g>
                  <defs>
                  <clipPath id="clip0_907_21225">
                  <rect width="64" height="64" fill="white"></rect>
                  </clipPath>
                  </defs>
                  </svg>