<svg xmlns="http://www.w3.org/2000/svg" width="74" height="71" viewBox="0 0 74 71" fill="none">
                  <path d="M72.5652 38.6289C70.6285 46.6647 62.7605 51.5547 54.9916 49.5512C47.2264 47.5478 42.499 39.4084 44.4361 31.3731C46.3718 23.3364 54.2394 18.4454 62.006 20.4489C69.7744 22.4523 74.5014 30.5926 72.5647 38.6289H72.5652Z" stroke="#E2DFD5" stroke-width="2"></path>
                  <path fill-rule="evenodd" clip-rule="evenodd" d="M62.8667 33.2573C63.0622 31.9033 62.0657 31.1754 60.703 30.6899L61.145 28.8557L60.0655 28.5774L59.6351 30.3633C59.3517 30.2901 59.0603 30.2211 58.7707 30.1528L59.2041 28.3551L58.1255 28.0769L57.6832 29.9105C57.4483 29.8551 57.2178 29.8004 56.994 29.7429L56.9952 29.7371L55.5068 29.3527L55.2197 30.5452C55.2197 30.5452 56.0205 30.735 56.0036 30.7468C56.4407 30.8597 56.52 31.1589 56.5065 31.3961L56.0029 33.4857C56.0331 33.4936 56.0721 33.505 56.1151 33.5229L56.0014 33.4936L55.2953 36.4207C55.2418 36.5581 55.1063 36.7642 54.8007 36.6859C54.8115 36.7022 54.0163 36.4834 54.0163 36.4834L53.4805 37.7617L54.8853 38.1239C55.0438 38.165 55.2005 38.2073 55.3554 38.2491L55.3555 38.2491C55.4558 38.2762 55.5554 38.3031 55.6544 38.3293L55.2077 40.1848L56.2857 40.4631L56.7284 38.6276C57.0226 38.7103 57.3084 38.7866 57.5882 38.8585L57.1474 40.6853L58.2266 40.9636L58.6733 39.1119C60.5136 39.4722 61.8978 39.3269 62.4797 37.6053C62.9491 36.2188 62.4567 35.4191 61.4884 34.8972C62.1935 34.7284 62.7247 34.2485 62.8664 33.2573H62.8667ZM60.4005 36.8344C60.0941 38.1069 58.1683 37.5804 57.288 37.3397C57.2091 37.3182 57.1387 37.2989 57.0785 37.2834L57.6712 34.8257C57.7447 34.8447 57.8345 34.8655 57.9363 34.8891C58.847 35.1006 60.7135 35.5338 60.4008 36.8344H60.4005ZM58.1193 33.7486C58.8539 33.9514 60.4551 34.3933 60.734 33.2373C61.0192 32.0547 59.4622 31.6983 58.7018 31.5242C58.6163 31.5046 58.5409 31.4874 58.4793 31.4715L57.942 33.7006C57.9928 33.7137 58.0525 33.7302 58.1193 33.7486Z" fill="#E2DFD5"></path>
                  <path d="M39.9212 15.5002C39.9212 23.4662 33.4637 29.9239 25.4978 29.9239C17.5318 29.9239 11.0742 23.4662 11.0742 15.5002C11.0742 7.53435 17.5318 1.07672 25.4978 1.07672C33.4636 1.07672 39.9212 7.53435 39.9212 15.5002" stroke="#E2DFD5" stroke-width="2"></path>
                  <path d="M25.4524 8.80768L25.3633 9.11049V17.8973L25.4524 17.9862L29.5311 15.5753L25.4524 8.80768Z" fill="#E2DFD5"></path>
                  <path d="M25.4518 8.80768L21.373 15.5753L25.4518 17.9862V13.7214V8.80768Z" fill="#E2DFD5"></path>
                  <path d="M25.4525 19.3132L25.4023 19.3744V22.5045L25.4525 22.6511L29.5337 16.9035L25.4525 19.3132Z" fill="#E2DFD5"></path>
                  <path d="M25.4518 22.6511V19.3132L21.373 16.9035L25.4518 22.6511Z" fill="#E2DFD5"></path>
                  <path d="M25.4512 17.9862L29.5298 15.5753L25.4512 13.7214V17.9862Z" fill="#E2DFD5"></path>
                  <path d="M21.373 15.5753L25.4517 17.9862V13.7214L21.373 15.5753Z" fill="#E2DFD5"></path>
                  <path d="M29.9212 55.5002C29.9212 63.4662 23.4637 69.9239 15.4978 69.9239C7.53184 69.9239 1.07422 63.4662 1.07422 55.5002C1.07422 47.5343 7.53184 41.0767 15.4978 41.0767C23.4636 41.0767 29.9212 47.5343 29.9212 55.5002" stroke="#E2DFD5" stroke-width="2"></path>
                  <path fill-rule="evenodd" clip-rule="evenodd" d="M16.4676 48.36C16.6613 47.992 16.2162 47.5465 15.8515 47.7385C15.5549 47.8579 15.4796 48.2917 15.7105 48.5111C15.9284 48.7398 16.3551 48.66 16.4676 48.36ZM12.4088 48.5223C12.4313 48.2785 12.1509 48.0735 11.9294 48.1656C11.6211 48.2486 11.5869 48.7391 11.886 48.8561C12.1118 48.9819 12.4323 48.7871 12.4088 48.5223ZM19.9624 48.8635C19.6162 48.8213 19.5614 48.2715 19.8947 48.1609C20.1532 48.0335 20.3904 48.2723 20.4282 48.5198C20.374 48.7311 20.1988 48.9246 19.9624 48.8635ZM13.6637 50.402C13.7206 49.9675 13.1922 49.6152 12.8218 49.8518C12.475 50.0309 12.4273 50.5654 12.742 50.7983C13.0675 51.0949 13.6444 50.8407 13.6637 50.402ZM18.4753 50.1028C18.6405 49.6727 19.31 49.6597 19.498 50.0784C19.6839 50.4042 19.4553 50.8077 19.1241 50.9185C18.6854 51.0012 18.2687 50.5222 18.4753 50.1028ZM16.0568 50.2237C15.709 50.2489 15.3756 50.5244 15.3792 50.8941C15.3594 51.1961 15.5731 51.4429 15.8268 51.5687C15.8523 51.5702 15.8782 51.5723 15.9042 51.5744C16.0475 51.5859 16.1964 51.5978 16.3254 51.5248C16.6586 51.376 16.8224 50.9293 16.638 50.6049C16.539 50.3697 16.2876 50.2705 16.0568 50.2237ZM9.54645 51.4327C9.88475 51.2227 10.3412 51.606 10.2131 51.9772C10.1426 52.2983 9.71527 52.429 9.471 52.224C9.21025 52.0319 9.25157 51.5701 9.54645 51.4327ZM22.798 51.8312C22.8322 51.4652 22.3586 51.207 22.0716 51.4321C21.777 51.6147 21.8091 52.1024 22.1228 52.2449C22.4078 52.4167 22.8173 52.165 22.798 51.8312ZM17.0195 52.0966C17.4932 51.9248 18.0557 52.1304 18.3257 52.557C18.6818 53.0784 18.4923 53.8726 17.9397 54.1718C17.3671 54.5257 16.531 54.2257 16.3195 53.5798C16.0794 53.0015 16.4292 52.2779 17.0195 52.0966ZM15.7255 52.6556C15.4719 52.1132 14.7655 51.9032 14.2405 52.1535C13.6811 52.4059 13.4237 53.1504 13.7135 53.6986C13.972 54.2654 14.7256 54.4977 15.2597 54.1913C15.7932 53.9187 16.0239 53.1836 15.7255 52.6556ZM11.4579 53.1144C11.4979 52.7728 11.8169 52.5505 12.1388 52.5275C12.4856 52.5698 12.7627 52.8418 12.8004 53.1964C12.7777 53.5474 12.5091 53.8905 12.1409 53.8884C11.7358 53.9236 11.3806 53.5165 11.4579 53.1144ZM20.6518 53.1959C20.6703 52.7132 20.0927 52.3572 19.6768 52.6018C19.2303 52.8145 19.1967 53.5179 19.6269 53.7677C20.0411 54.0677 20.6803 53.7073 20.6518 53.1959ZM13.1096 54.4041C13.5961 54.2689 14.1523 54.5006 14.3909 54.9522C14.6522 55.4068 14.5454 56.0384 14.1395 56.3718C13.6189 56.8609 12.6588 56.6645 12.3817 55.997C12.0634 55.3852 12.4501 54.5652 13.1096 54.4041ZM19.6632 54.8843C19.409 54.4491 18.8535 54.265 18.3806 54.4016C17.7161 54.5854 17.3643 55.437 17.7139 56.0395C18.0024 56.6221 18.8143 56.8177 19.3385 56.4451C19.8389 56.1243 19.9994 55.382 19.6632 54.8843ZM9.98087 54.9694C10.4011 54.8089 10.8668 55.2773 10.6966 55.6981C10.5926 56.0814 10.0577 56.2231 9.78144 55.9405C9.45811 55.6751 9.57782 55.0845 9.98087 54.9694ZM21.97 54.8975C21.613 54.917 21.3582 55.2284 21.3704 55.5801C21.4401 55.7441 21.5249 55.9153 21.6901 56.0002C22.0426 56.1965 22.5412 55.9124 22.5148 55.4945C22.5376 55.1781 22.2578 54.9436 21.97 54.8975ZM7.91478 55.1759C8.16758 55.0644 8.48028 55.2857 8.42256 55.5693C8.40901 55.8904 7.93971 56.0138 7.7673 55.7456C7.61496 55.5592 7.70615 55.2719 7.91478 55.1759ZM24.3886 55.3435C24.3181 55.1335 24.0325 55.0414 23.8545 55.1694C23.5583 55.3291 23.6744 55.8815 24.0333 55.8485C24.2889 55.8873 24.5082 55.5729 24.3886 55.3435ZM14.4827 56.7108C15.1479 56.536 15.863 57.0964 15.8672 57.7882C15.9106 58.4874 15.2063 59.1073 14.5254 58.9459C13.999 58.8603 13.586 58.3481 13.6031 57.8109C13.6017 57.297 13.9856 56.8195 14.4827 56.7108ZM18.518 57.7969C18.5287 57.0891 17.7923 56.5187 17.1171 56.7094C16.7169 56.8098 16.3779 57.1431 16.2895 57.5529C16.1143 58.1679 16.5772 58.8642 17.2046 58.9461C17.8714 59.0823 18.5537 58.4832 18.518 57.7969ZM12.0378 57.1352C12.505 57.0547 12.943 57.5812 12.7535 58.0293C12.6153 58.5068 11.9273 58.6364 11.6232 58.2463C11.2664 57.8717 11.5327 57.1869 12.0378 57.1352ZM20.6596 57.8007C20.6916 57.344 20.1802 56.98 19.7636 57.1563C19.2601 57.3179 19.1761 58.0933 19.6376 58.3567C20.045 58.6502 20.6763 58.3035 20.6596 57.8007ZM21.9231 59.3441C21.76 59.037 22.0563 58.6298 22.3939 58.6867C22.5526 58.684 22.6663 58.8032 22.7691 58.911L22.7871 58.9298L22.7909 58.961C22.8127 59.1361 22.8378 59.3369 22.6966 59.4693C22.4935 59.7289 22.0334 59.6548 21.9231 59.3441ZM10.2437 59.2491C10.3146 58.8765 9.86057 58.5601 9.54503 58.7722C9.24446 58.9269 9.23375 59.4103 9.52428 59.58C9.79499 59.767 10.206 59.5787 10.2437 59.2491ZM15.7789 59.4621C16.192 59.278 16.7183 59.6412 16.6791 60.1008C16.7098 60.6086 16.0588 60.9603 15.655 60.6554C15.2063 60.3935 15.2811 59.6231 15.7789 59.4621ZM13.6836 60.6762C13.7156 60.2784 13.2435 59.9555 12.8916 60.1425C12.6437 60.236 12.5427 60.5122 12.5383 60.7602C12.6231 60.9878 12.7954 61.2271 13.0597 61.2328C13.3787 61.2811 13.6943 61.0027 13.6836 60.6762ZM18.7402 60.1482C19.102 59.9223 19.6162 60.2467 19.582 60.6721C19.5913 61.1166 19.0102 61.4014 18.6733 61.1094C18.3471 60.8805 18.3869 60.3302 18.7402 60.1482ZM20.0471 62.0896C19.7858 62.1457 19.5963 62.442 19.7573 62.688C19.9225 62.9736 20.4047 62.8714 20.4353 62.5384C20.4795 62.2924 20.2573 62.1327 20.0471 62.0896ZM11.6837 62.4744C11.7478 62.2794 11.9031 62.0857 12.1303 62.1364C12.4615 62.1601 12.5598 62.6643 12.2699 62.8197C12.0092 62.9973 11.7068 62.7542 11.6837 62.4744ZM16.2553 62.4226C16.0117 62.2694 15.6422 62.4097 15.5787 62.698C15.4629 62.9894 15.7411 63.3416 16.0496 63.3051C16.2155 63.3094 16.3437 63.19 16.4434 63.0706C16.4628 62.9901 16.4825 62.9095 16.5046 62.8289L16.5033 62.8238C16.4623 62.6703 16.4145 62.4916 16.2553 62.4226Z" fill="#E2DFD5"></path>
                  </svg>