<svg xmlns="http://www.w3.org/2000/svg" width="64" height="64" viewBox="0 0 64 64" fill="none">
                  <path d="M53 44C51.9 44 51 43.1 51 42C51 40.9 51.9 40 53 40C54.1 40 55 40.9 55 42C55 43.1 54.1 44 53 44Z" fill="#E2DFD5"></path>
                  <path d="M56.7 23.3L37.8 4.40002C36.9 3.50002 35.8 3.00002 34.5 3.10002C31.9 3.10002 31 4.70002 25.5 10.2C24 9.90002 22.4 10.3 21.3 11.4L9.6 23H7C4.8 23 3 24.8 3 27V57C3 59.2 4.8 61 7 61H55C58.3 61 61 58.3 61 55V29C61 26.3 59.2 24 56.7 23.3ZM55.9 25.1C57.7 25.5 59 27.1 59 29V36H56C56 29.1 56.4 27.2 54.5 25C54.9 25 55.4 25 55.9 25.1ZM59 46H52C50.3 46 49 44.7 49 43V41C49 39.3 50.3 38 52 38H59V46ZM32.7 5.80002C33.7 4.80002 35.4 4.80002 36.4 5.80002L53.6 23H39.4C31.3 14.9 27.7 11.3 27.4 11L32.7 5.80002ZM12 59V25H14V59H12ZM5 57V27C5 25.9 5.9 25 7 25H10V59H7C5.9 59 5 58.1 5 57ZM16 59V25H20C20.6 25 21 24.6 21 24C21 23.4 20.6 23 20 23H12.4L22.6 12.8C23.6 11.8 25.3 11.8 26.3 12.8L36.6 23H29C28.4 23 28 23.4 28 24C28 24.6 28.4 25 29 25H50C52.2 25 54 26.8 54 29V36H52C49.2 36 47 38.2 47 41V43C47 45.8 49.2 48 52 48H54V55C54 57.2 52.2 59 50 59H16ZM55 59H54.5C56.5 56.8 56 55.3 56 48H59V55C59 57.2 57.2 59 55 59Z" fill="#E2DFD5"></path>
                  <path d="M31 27H23C21.3 27 20 28.3 20 30V32C20 33.7 21.3 35 23 35H31C32.7 35 34 33.7 34 32V30C34 28.3 32.7 27 31 27ZM32 32C32 32.6 31.6 33 31 33H23C22.4 33 22 32.6 22 32V30C22 29.4 22.4 29 23 29H31C31.6 29 32 29.4 32 30V32Z" fill="#E2DFD5"></path>
                  <path d="M24 25H25C25.6 25 26 24.6 26 24C26 23.4 25.6 23 25 23H24C23.4 23 23 23.4 23 24C23 24.6 23.4 25 24 25Z" fill="#E2DFD5"></path>
                  </svg>