<svg xmlns="http://www.w3.org/2000/svg" width="71" height="67" viewBox="0 0 71 67" fill="none">
                  <path fill-rule="evenodd" clip-rule="evenodd" d="M33.9994 14.25C23.644 14.25 15.2493 22.6447 15.2493 33C15.2493 43.3554 23.644 51.75 33.9994 51.75C44.3547 51.75 52.7494 43.3554 52.7494 33C52.7494 22.6447 44.3547 14.25 33.9994 14.25ZM13.166 33C13.166 21.4941 22.4934 12.1667 33.9994 12.1667C45.5053 12.1667 54.8327 21.4941 54.8327 33C54.8327 44.506 45.5053 53.8334 33.9994 53.8334C22.4934 53.8334 13.166 44.506 13.166 33Z" fill="#E2DFD5"></path>
                  <path fill-rule="evenodd" clip-rule="evenodd" d="M13.166 33C13.166 32.4247 13.6324 31.9583 14.2077 31.9583H53.791C54.3663 31.9583 54.8327 32.4247 54.8327 33C54.8327 33.5753 54.3663 34.0416 53.791 34.0416H14.2077C13.6324 34.0416 13.166 33.5753 13.166 33Z" fill="#E2DFD5"></path>
                  <path fill-rule="evenodd" clip-rule="evenodd" d="M34 12.1667C34.2907 12.1667 34.5682 12.2882 34.7654 12.5018C39.9196 18.0855 43.1584 25.4038 43.3746 32.9703C43.3751 32.9901 43.3751 33.0099 43.3746 33.0298C43.1584 40.5962 39.9196 47.9145 34.7654 53.4982C34.5682 53.7119 34.2907 53.8334 34 53.8334C33.7093 53.8334 33.4318 53.7119 33.2346 53.4982C28.0804 47.9145 24.8416 40.5962 24.6254 33.0298C24.6249 33.0099 24.6249 32.9901 24.6254 32.9703C24.8416 25.4038 28.0804 18.0855 33.2346 12.5018C33.4318 12.2882 33.7093 12.1667 34 12.1667ZM26.7088 33C26.9057 39.6294 29.6106 46.1064 34 51.2249C38.3894 46.1064 41.0943 39.6294 41.2912 33C41.0943 26.3707 38.3894 19.8936 34 14.7751C29.6106 19.8936 26.9057 26.3707 26.7088 33Z" fill="#E2DFD5"></path>
                  <path fill-rule="evenodd" clip-rule="evenodd" d="M16.291 23.625C16.291 23.0497 16.7574 22.5833 17.3327 22.5833H50.666C51.2413 22.5833 51.7077 23.0497 51.7077 23.625C51.7077 24.2003 51.2413 24.6666 50.666 24.6666H17.3327C16.7574 24.6666 16.291 24.2003 16.291 23.625Z" fill="#E2DFD5"></path>
                  <path fill-rule="evenodd" clip-rule="evenodd" d="M16.291 42.375C16.291 41.7997 16.7574 41.3333 17.3327 41.3333H50.666C51.2413 41.3333 51.7077 41.7997 51.7077 42.375C51.7077 42.9503 51.2413 43.4166 50.666 43.4166H17.3327C16.7574 43.4166 16.291 42.9503 16.291 42.375Z" fill="#E2DFD5"></path>
                  <path d="M58.4469 12.6684C52.4852 5.53663 43.5224 1 33.5 1C15.5507 1 1 15.5507 1 33.5C1 35.7193 1.22244 37.8866 1.64624 39.9809M65.135 26.0197C65.7007 28.4213 66 30.9257 66 33.5C66 51.4493 51.4493 66 33.5 66C23.1597 66 13.9472 61.171 7.99486 53.6451" stroke="#E2DFD5" stroke-width="2" stroke-linecap="round"></path>
                  <path d="M60.5084 4.66199V13.8169H51.3535" stroke="#E2DFD5" stroke-width="2" stroke-linecap="round" stroke-linejoin="round"></path>
                  <path d="M15.6476 53.1831L7.4082 53.1831V61.4225" stroke="#E2DFD5" stroke-width="2" stroke-linecap="round" stroke-linejoin="round"></path>
                  </svg>